<svg width="24" height="23" viewBox="0 0 24 23" fill="none" xmlns="http://www.w3.org/2000/svg"> <path opacity="0.2" d="M11.6149 21.4735C17.0597 21.4735 21.4736 17.0596 21.4736 11.6148C21.4736 6.17006 17.0597 1.7562 11.6149 1.7562C6.17015 1.7562 1.75629 6.17006 1.75629 11.6148C1.75629 17.0596 6.17015 21.4735 11.6149 21.4735Z" fill="#354052"/> <path d="M15.4296 1.68392C10.0138 -0.487126 3.85492 2.14699 1.68391 7.56278C-0.487084 12.9785 2.14689 19.1373 7.56275 21.3084C12.9784 23.4794 19.1374 20.8454 21.3084 15.4296C21.3269 15.3914 21.3373 15.3499 21.3391 15.3076C21.3409 15.2652 21.3339 15.2229 21.3187 15.1834C21.3034 15.1438 21.2801 15.1078 21.2503 15.0776C21.2205 15.0475 21.1849 15.0238 21.1455 15.008C21.1061 14.9922 21.064 14.9847 21.0216 14.9859C20.9792 14.9872 20.9375 14.9971 20.8991 15.0152C20.8607 15.0332 20.8265 15.059 20.7985 15.0908C20.7705 15.1227 20.7494 15.1599 20.7364 15.2004C18.6897 20.3062 12.8978 22.7833 7.79202 20.7365C2.68598 18.6897 0.215927 12.9007 2.26273 7.79479C4.30953 2.68885 10.0943 0.209002 15.2003 2.25584C18.3398 3.51439 20.483 6.18891 21.1945 9.24951L19.0446 8.38774C18.9678 8.35691 18.882 8.35789 18.806 8.39039C18.7299 8.42299 18.6699 8.48435 18.6392 8.56113C18.6084 8.63782 18.6093 8.72373 18.6419 8.79972C18.6744 8.87572 18.7358 8.93571 18.8126 8.96654L21.555 10.0658C21.6312 10.0952 21.7159 10.093 21.7907 10.06C21.8654 10.027 21.9239 9.96578 21.9536 9.88969L23.0529 7.14726C23.0698 7.1069 23.078 7.0635 23.0768 7.01981C23.0756 6.97612 23.0652 6.93311 23.0462 6.89384C23.0272 6.85447 23 6.81951 22.9665 6.79143C22.9331 6.76335 22.8941 6.74263 22.852 6.73075C22.7779 6.71023 22.6989 6.71809 22.6304 6.75265C22.5617 6.78731 22.5085 6.84622 22.481 6.91799L21.555 8.56113C20.7314 5.43734 18.6565 2.97749 15.4296 1.68392Z" fill="#354052" stroke="#354052" stroke-width="1.55"/> <path d="M14.8053 12.9217L11.2754 12.9155C11.0037 12.9155 10.7835 12.6877 10.7835 12.4069V6.30355C10.7835 6.02269 11.0037 5.79498 11.2754 5.79498C11.5471 5.79498 11.7672 6.02269 11.7672 6.30355V11.8983L14.8053 11.9045C15.0768 11.9045 15.2971 12.1322 15.2971 12.4131C15.2971 12.694 15.0768 12.9217 14.8053 12.9217Z" fill="#354052" stroke="#354052" stroke-width="0.89"/> </svg>