<svg width="24" height="24" viewBox="0 0 24 24" fill="none" xmlns="http://www.w3.org/2000/svg"><circle cx="12" cy="12" r="11" fill="#354052" fill-opacity="0.3" stroke="#354052" stroke-width="2"/><path d="M7.6 8C5.54844 8 4 10.8486 4 12.8C4 14.3601 5.00328 15.6932 6.4 16.1904L5.85168 20.1974C6.35168 20.6974 7.39813 21.0793 7.39813 21.0793C7.59021 21.1585 8.8 21.5351 8.8 21.4499V16.1904C10.1967 15.6933 11.2 14.3601 11.2 12.8C11.2 10.8474 9.65164 8 7.6 8Z" fill="#354052"/><path d="M18.4 7.94328C18.0686 7.94328 17.8 8.21192 17.8 8.54328V12.7433H16.6V8.54312C16.6 8.21176 16.3314 7.94312 16 7.94312C15.6686 7.94312 15.4 8.21176 15.4 8.54312V12.7433H14.2V8.54328C14.2 8.21192 13.9314 7.94328 13.6 7.94328C13.2686 7.94328 13 8.21192 13 8.54328V14.5433C13 15.5358 13.8075 16.3433 14.8 16.3433L14.7362 21.5668C14.7362 21.7476 15.0511 21.7282 16.0511 21.285C17.0511 20.8419 17.2 20.8244 17.2 20.6798V16.3433C18.1925 16.3433 19 15.5358 19 14.5433V8.54328C19 8.21192 18.7314 7.94328 18.4 7.94328Z" fill="#354052"/></svg>